# xmcd
#
# Track frame offsets: 
#        150
#        5510
#        40672
#        61307
#        81838
#        104380
#        129243
#        139801
#        155459
#        183824
#        200211
#        229285
#        243849
#        264375
#
# Disc length: 3965 seconds
#
# Revision: 0
# Processed by: cddbd v1.5.2PL0 Copyright (c) Steve Scherf et al.
# Submitted via: ExactAudioCopy v1.3
#
DISCID=b60f7b0e
DTITLE=Various Artist - Instant Expert: All You Need to Know About Cl
DTITLE=assical Music. Vol.1, CD1
DYEAR=2012
DGENRE=Classical
TTITLE0=Blessed be the holy Trinity
TTITLE1=Miserere
TTITLE2=Canon in D Major
TTITLE3=I gaze on you
TTITLE4=When I am laid in earth
TTITLE5=Brandenburg Concerto No. 3
TTITLE6=The Well-Tempered Clavier, Book I
TTITLE7=The four seasons – Spring
TTITLE8=O dread abode
TTITLE9=Messiah: Hallelujah
TTITLE10=Clarinet concerto: second movement
TTITLE11=Requiem: Lacrimosa
TTITLE12=String Quartet in G major
TTITLE13=Symphony No. 5
EXTD=
EXTT0=
EXTT1=
EXTT2=
EXTT3=
EXTT4=
EXTT5=
EXTT6=
EXTT7=
EXTT8=
EXTT9=
EXTT10=
EXTT11=
EXTT12=
EXTT13=
PLAYORDER=
